<svg id="Capa_1" enable-background="new 0 0 512.089 512.089" height="512" viewBox="0 0 512.089 512.089" width="512" xmlns="http://www.w3.org/2000/svg"><g><path d="m332.861 263.657c.266-.531 4.584-9.307 5.505-20.812h5.057c4.143 0 7.5-3.357 7.5-7.5s-3.357-7.5-7.5-7.5h-6.122c-.185-.773-.385-1.547-.618-2.322-2.934-9.739-11.258-17.015-21.725-18.987-9.576-1.806-18.822 1.282-24.136 8.058-2.665 3.397-5.106 7.583-7.664 13.252h-37.833c.462-4.596 1.766-7.754 5.157-12.938 2.268-3.467 1.296-8.115-2.17-10.383-3.467-2.268-8.115-1.297-10.383 2.17-5.405 8.261-7.153 13.993-7.653 21.15h-6.244c-4.143 0-7.5 3.357-7.5 7.5s3.357 7.5 7.5 7.5h6.927c3.238 14.185 15.192 23.29 26.984 25.272 1.875.315 3.718.47 5.521.47 12.693-.001 23.312-7.647 27.871-20.547.604-1.708 1.233-3.453 1.887-5.195h30.091c-.865 7.888-3.815 13.997-3.87 14.108-1.84 3.698-.343 8.19 3.352 10.044 3.7 1.857 8.209.364 10.066-3.34zm-55.67-20.615c-4.058 11.477-13.857 10.771-16.763 10.284-5.372-.903-11.049-4.466-13.736-10.48h30.569c-.023.067-.046.129-.07.196zm25.435-19.191c1.815-2.315 5.564-3.328 9.555-2.573 3.339.629 7.287 2.68 9.318 6.568h-21.531c.859-1.478 1.744-2.83 2.658-3.995z"/><path d="m283.728 319.581c-4.143 0-7.5 3.357-7.5 7.5v22.551c0 4.143 3.357 7.5 7.5 7.5s7.5-3.357 7.5-7.5v-22.551c0-4.143-3.358-7.5-7.5-7.5z"/><path d="m283.728 152.288c4.143 0 7.5-3.357 7.5-7.5v-22.551c0-4.143-3.357-7.5-7.5-7.5s-7.5 3.357-7.5 7.5v22.551c0 4.143 3.357 7.5 7.5 7.5z"/><path d="m194.442 434.108c4.143 0 7.5-3.357 7.5-7.5s-3.357-7.5-7.5-7.5h-2.172c-4.143 0-7.5 3.357-7.5 7.5s3.357 7.5 7.5 7.5z"/><path d="m375.185 52.761c4.143 0 7.5-3.357 7.5-7.5s-3.357-7.5-7.5-7.5h-2.171c-4.143 0-7.5 3.357-7.5 7.5s3.357 7.5 7.5 7.5z"/><path d="m192.271 37.761c-4.143 0-7.5 3.357-7.5 7.5s3.357 7.5 7.5 7.5h2.172c4.143 0 7.5-3.357 7.5-7.5s-3.357-7.5-7.5-7.5z"/><path d="m375.751 463.232h15.219c6.409 0 11.624-5.215 11.624-11.624v-16.466c5.279-5.154 8.34-12.277 8.34-19.728 0-7.829-3.347-15.316-9.181-20.543-5.829-5.222-13.656-7.722-21.494-6.859-12.893 1.421-23.132 11.835-24.347 24.764-.798 8.485 2.233 16.593 8.215 22.38v16.452c0 6.41 5.215 11.624 11.624 11.624zm-4.905-49.051c.544-5.784 5.297-10.624 11.057-11.258 3.645-.409 7.146.707 9.842 3.122 2.662 2.385 4.189 5.8 4.189 9.37 0 4.069-1.907 7.781-5.233 10.186-1.951 1.41-3.106 3.671-3.106 6.078v16.554h-8.467v-16.554c0-2.407-1.155-4.668-3.106-6.078-3.665-2.649-5.599-6.918-5.176-11.42z"/><path d="m462.412 401.082c4.143 0 7.5-3.357 7.5-7.5v-27.196c0-14.896-11.95-27.045-26.766-27.384v-31.834c0-15.268-8.318-28.62-20.653-35.791v-252.79c0-10.249-8.338-18.587-18.587-18.587h-142.671c-4.143 0-7.5 3.357-7.5 7.5s3.357 7.5 7.5 7.5h142.671c1.978 0 3.587 1.609 3.587 3.587v247.606c-1.873-.26-3.782-.405-5.726-.405h-11.835v-177.558c0-4.143-3.357-7.5-7.5-7.5-22.426 0-40.67-18.244-40.67-40.669 0-4.143-3.357-7.5-7.5-7.5h-101.07c-4.143 0-7.5 3.357-7.5 7.5 0 22.425-18.244 40.669-40.669 40.669-4.143 0-7.5 3.357-7.5 7.5v295.408c0 4.143 3.357 7.5 7.5 7.5 22.425 0 40.669 18.244 40.669 40.67 0 4.143 3.357 7.5 7.5 7.5h63.616v17.56h-133.26c-1.978 0-3.586-1.608-3.586-3.586v-434.695c0-1.978 1.608-3.587 3.586-3.587h67.699c4.143 0 7.5-3.357 7.5-7.5s-3.357-7.5-7.5-7.5h-67.699c-10.248 0-18.586 8.338-18.586 18.587v205.657h-66.8c-11.027 0-19.999 8.972-19.999 19.999v14.298c0 1.834.269 3.603.733 5.292-9.47 1.572-16.721 9.797-16.721 19.706v14.299c0 9.908 7.251 18.134 16.72 19.706-.464 1.688-.733 3.457-.733 5.291v14.299c0 1.834.269 3.603.733 5.292-9.47 1.572-16.721 9.797-16.721 19.706v14.298c0 4.728 1.658 9.071 4.412 12.499-2.754 3.427-4.412 7.771-4.412 12.499v14.299c0 11.027 8.972 19.998 19.999 19.998h11.988c4.143 0 7.5-3.357 7.5-7.5s-3.357-7.5-7.5-7.5h-11.985c-2.757 0-4.999-2.242-4.999-4.998v-14.299c0-2.756 2.242-4.998 4.999-4.998h82.787v24.295h-40.812c-4.143 0-7.5 3.357-7.5 7.5s3.357 7.5 7.5 7.5h40.812v17.56c0 10.248 8.338 18.586 18.586 18.586h133.26v12.82c0 15.108 12.292 27.4 27.4 27.4h118.303c15.108 0 27.4-12.292 27.4-27.4v-61.12c0-4.143-3.357-7.5-7.5-7.5s-7.5 3.357-7.5 7.5v61.12c0 6.838-5.562 12.4-12.4 12.4h-118.303c-6.838 0-12.4-5.562-12.4-12.4v-118.305c0-6.838 5.562-12.4 12.4-12.4h118.303c6.838 0 12.4 5.562 12.4 12.4v27.196c0 4.143 3.358 7.5 7.5 7.5zm-389.248-63.949v-14.299c0-2.756 2.242-4.998 4.999-4.998h66.8v24.296h-66.8c-2.757 0-4.999-2.242-4.999-4.999zm0-92.89c0-2.757 2.242-4.999 4.999-4.999h66.8v24.296h-66.8c-2.757 0-4.999-2.242-4.999-4.999zm-15.987 53.595v-14.299c0-2.757 2.242-4.999 4.999-4.999h82.787v24.296c-11.191 0-72.494 0-82.787 0-2.757 0-4.999-2.242-4.999-4.998zm4.999 83.59c-2.757 0-4.999-2.242-4.999-4.999v-14.298c0-2.757 2.242-4.999 4.999-4.999h82.787v24.296zm365.97-74.261v31.818h-13.818v-33.741c0-6.229-5.068-11.296-11.299-11.296h-39.339c-6.229 0-11.297 5.067-11.297 11.296v33.741h-13.819v-31.818c0-14.545 11.834-26.379 26.379-26.379h36.814c14.545 0 26.379 11.834 26.379 26.379zm-28.818 31.818h-31.935v-30.037h31.935zm-102.519 27.401v57.923h-56.619c-3.342-24.711-22.956-44.325-47.666-47.667v-281.414c24.71-3.342 44.324-22.956 47.666-47.666h87.076c3.342 24.71 22.956 44.324 47.667 47.666v170.561h-9.979c-22.816 0-41.379 18.562-41.379 41.379v31.834c-14.816.339-26.766 12.488-26.766 27.384z"/></g></svg>